<svg width="120" height="120" viewBox="0 0 120 120" fill="none" xmlns="http://www.w3.org/2000/svg">
<rect width="120" height="120" rx="60" fill="white"/>
<path d="M86.8333 71.5V29.3333C86.8307 28.7575 86.6983 28.1898 86.4462 27.6721C86.194 27.1545 85.8284 26.7003 85.3767 26.3433C84.9313 25.9831 84.4109 25.7272 83.8537 25.5945C83.2964 25.4619 82.7166 25.4558 82.1567 25.5767L47.6567 33.2433C46.805 33.4354 46.0444 33.9124 45.5007 34.5956C44.957 35.2787 44.6627 36.1269 44.6667 37V68.97C42.0498 67.7346 39.1028 67.381 36.268 67.9623C33.4331 68.5436 30.8631 70.0284 28.9436 72.1941C27.0241 74.3597 25.8586 77.0893 25.6218 79.9735C25.3851 82.8576 26.0899 85.7408 27.6306 88.1904C29.1712 90.6401 31.4646 92.5241 34.1668 93.5599C36.8689 94.5957 39.834 94.7274 42.6174 93.9353C45.4007 93.1432 47.8521 91.4699 49.6039 89.1665C51.3557 86.8631 52.3134 84.0538 52.3333 81.16C52.3766 80.4963 52.3766 79.8304 52.3333 79.1667V40.0667L79.1667 34.125V61.3033C76.5483 60.0672 73.5996 59.7139 70.7633 60.2965C67.927 60.8791 65.3563 62.3661 63.4372 64.5343C61.5181 66.7025 60.3543 69.4348 60.1205 72.3208C59.8866 75.2069 60.5955 78.0909 62.1405 80.5397C63.6855 82.9886 65.9833 84.8701 68.6888 85.9017C71.3943 86.9332 74.3615 87.0592 77.1447 86.2607C79.9279 85.4621 82.3769 83.7822 84.1239 81.4731C85.871 79.164 86.8217 76.3505 86.8333 73.455C86.8666 72.8038 86.8666 72.1512 86.8333 71.5Z" fill="#777777"/>
</svg>
