<svg width="120" height="120" viewBox="0 0 120 120" fill="none" xmlns="http://www.w3.org/2000/svg">
<rect width="120" height="120" fill="white"/>
<path d="M20.2052 101V91.28H21.1292L23.8892 97.736V91.28H25.0172V101H24.1532L21.3572 94.364V101H20.2052ZM28.3451 101.096C27.8331 101.096 27.4291 100.992 27.1331 100.784C26.8371 100.576 26.6251 100.28 26.4971 99.896C26.3771 99.512 26.3171 99.06 26.3171 98.54V96.524C26.3171 96.004 26.3771 95.552 26.4971 95.168C26.6251 94.784 26.8371 94.488 27.1331 94.28C27.4291 94.072 27.8331 93.968 28.3451 93.968C28.8571 93.968 29.2571 94.072 29.5451 94.28C29.8411 94.488 30.0491 94.784 30.1691 95.168C30.2971 95.552 30.3611 96.004 30.3611 96.524V98.54C30.3611 99.06 30.2971 99.512 30.1691 99.896C30.0491 100.28 29.8411 100.576 29.5451 100.784C29.2571 100.992 28.8571 101.096 28.3451 101.096ZM28.3451 100.148C28.5931 100.148 28.7651 100.076 28.8611 99.932C28.9651 99.788 29.0251 99.6 29.0411 99.368C29.0651 99.128 29.0771 98.88 29.0771 98.624V96.452C29.0771 96.188 29.0651 95.94 29.0411 95.708C29.0251 95.476 28.9651 95.288 28.8611 95.144C28.7651 94.992 28.5931 94.916 28.3451 94.916C28.0971 94.916 27.9211 94.992 27.8171 95.144C27.7131 95.288 27.6491 95.476 27.6251 95.708C27.6091 95.94 27.6011 96.188 27.6011 96.452V98.624C27.6011 98.88 27.6091 99.128 27.6251 99.368C27.6491 99.6 27.7131 99.788 27.8171 99.932C27.9211 100.076 28.0971 100.148 28.3451 100.148ZM34.4569 101V91.28H35.7889V101H34.4569ZM37.2535 101V94.064H38.4415V94.724C38.6735 94.46 38.9295 94.264 39.2095 94.136C39.4895 94.008 39.7775 93.944 40.0735 93.944C40.3295 93.944 40.5575 94.008 40.7575 94.136C40.9655 94.264 41.1135 94.492 41.2015 94.82C41.4495 94.516 41.7175 94.296 42.0055 94.16C42.3015 94.016 42.6095 93.944 42.9295 93.944C43.1535 93.944 43.3575 94 43.5415 94.112C43.7255 94.216 43.8735 94.388 43.9855 94.628C44.0975 94.86 44.1535 95.168 44.1535 95.552V101H42.9775V95.636C42.9775 95.3 42.9215 95.076 42.8095 94.964C42.7055 94.844 42.5615 94.784 42.3775 94.784C42.2015 94.784 42.0175 94.836 41.8255 94.94C41.6335 95.036 41.4575 95.172 41.2975 95.348C41.2975 95.38 41.2975 95.412 41.2975 95.444C41.2975 95.476 41.2975 95.512 41.2975 95.552V101H40.1215V95.636C40.1215 95.3 40.0655 95.076 39.9535 94.964C39.8495 94.844 39.7055 94.784 39.5215 94.784C39.3455 94.784 39.1615 94.836 38.9695 94.94C38.7855 95.036 38.6095 95.172 38.4415 95.348V101H37.2535ZM46.4537 101.096C46.1817 101.096 45.9417 101.02 45.7337 100.868C45.5257 100.708 45.3617 100.508 45.2417 100.268C45.1217 100.02 45.0617 99.76 45.0617 99.488C45.0617 99.056 45.1337 98.692 45.2777 98.396C45.4217 98.1 45.6177 97.852 45.8657 97.652C46.1217 97.444 46.4137 97.264 46.7417 97.112C47.0777 96.96 47.4297 96.812 47.7977 96.668V96.176C47.7977 95.896 47.7817 95.664 47.7497 95.48C47.7177 95.296 47.6497 95.16 47.5457 95.072C47.4497 94.976 47.3017 94.928 47.1017 94.928C46.9257 94.928 46.7817 94.968 46.6697 95.048C46.5657 95.128 46.4897 95.244 46.4417 95.396C46.3937 95.54 46.3697 95.712 46.3697 95.912V96.26L45.0977 96.212C45.1137 95.444 45.2897 94.88 45.6257 94.52C45.9617 94.152 46.4817 93.968 47.1857 93.968C47.8737 93.968 48.3617 94.156 48.6497 94.532C48.9377 94.908 49.0817 95.452 49.0817 96.164V99.332C49.0817 99.548 49.0857 99.756 49.0937 99.956C49.1097 100.156 49.1257 100.344 49.1417 100.52C49.1657 100.688 49.1857 100.848 49.2017 101H48.0257C48.0017 100.872 47.9697 100.712 47.9297 100.52C47.8977 100.32 47.8737 100.14 47.8577 99.98C47.7777 100.252 47.6217 100.508 47.3897 100.748C47.1657 100.98 46.8537 101.096 46.4537 101.096ZM46.9577 99.992C47.0857 99.992 47.2057 99.956 47.3177 99.884C47.4297 99.812 47.5297 99.732 47.6177 99.644C47.7057 99.548 47.7657 99.472 47.7977 99.416V97.448C47.5977 97.56 47.4097 97.672 47.2337 97.784C47.0577 97.896 46.9017 98.016 46.7657 98.144C46.6377 98.264 46.5337 98.404 46.4537 98.564C46.3817 98.716 46.3457 98.892 46.3457 99.092C46.3457 99.372 46.3977 99.592 46.5017 99.752C46.6057 99.912 46.7577 99.992 46.9577 99.992ZM52.1559 103.172C51.7319 103.172 51.3479 103.124 51.0039 103.028C50.6679 102.94 50.3999 102.8 50.1999 102.608C50.0079 102.416 49.9119 102.164 49.9119 101.852C49.9119 101.612 49.9679 101.4 50.0799 101.216C50.1919 101.04 50.3359 100.888 50.5119 100.76C50.6879 100.632 50.8719 100.532 51.0639 100.46L51.6639 100.544C51.5599 100.64 51.4599 100.74 51.3639 100.844C51.2679 100.94 51.1879 101.04 51.1239 101.144C51.0599 101.256 51.0279 101.376 51.0279 101.504C51.0279 101.712 51.1159 101.868 51.2919 101.972C51.4759 102.076 51.7999 102.128 52.2639 102.128C52.7199 102.128 53.0559 102.072 53.2719 101.96C53.4959 101.856 53.6079 101.688 53.6079 101.456C53.6079 101.312 53.5799 101.192 53.5239 101.096C53.4679 101.008 53.3719 100.936 53.2359 100.88C53.0999 100.824 52.9039 100.784 52.6479 100.76L51.1359 100.568C50.8239 100.528 50.5919 100.428 50.4399 100.268C50.2879 100.108 50.2119 99.932 50.2119 99.74C50.2119 99.452 50.2919 99.208 50.4519 99.008C50.6199 98.808 50.8439 98.584 51.1239 98.336L51.5559 98.672C51.5079 98.736 51.4479 98.828 51.3759 98.948C51.3039 99.06 51.2679 99.172 51.2679 99.284C51.2679 99.372 51.3119 99.444 51.3999 99.5C51.4959 99.556 51.6439 99.592 51.8439 99.608L53.0079 99.716C53.5519 99.764 53.9559 99.928 54.2199 100.208C54.4839 100.488 54.6159 100.888 54.6159 101.408C54.6159 101.792 54.5239 102.116 54.3399 102.38C54.1639 102.644 53.8959 102.84 53.5359 102.968C53.1759 103.104 52.7159 103.172 52.1559 103.172ZM52.2039 98.864C51.7319 98.864 51.3479 98.76 51.0519 98.552C50.7559 98.344 50.5359 98.056 50.3919 97.688C50.2559 97.32 50.1879 96.9 50.1879 96.428C50.1879 95.892 50.2639 95.444 50.4159 95.084C50.5679 94.716 50.7919 94.44 51.0879 94.256C51.3919 94.064 51.7639 93.968 52.2039 93.968C52.6599 93.968 53.0319 94.084 53.3199 94.316C53.6079 94.54 53.8199 94.84 53.9559 95.216C54.0919 95.592 54.1599 96.008 54.1599 96.464C54.1599 96.936 54.0959 97.356 53.9679 97.724C53.8479 98.084 53.6439 98.364 53.3559 98.564C53.0759 98.764 52.6919 98.864 52.2039 98.864ZM52.2039 97.94C52.3799 97.94 52.5199 97.908 52.6239 97.844C52.7279 97.772 52.8039 97.672 52.8519 97.544C52.9079 97.416 52.9439 97.26 52.9599 97.076C52.9839 96.884 52.9959 96.668 52.9959 96.428C52.9959 96.188 52.9879 95.972 52.9719 95.78C52.9559 95.588 52.9199 95.428 52.8639 95.3C52.8079 95.164 52.7279 95.06 52.6239 94.988C52.5199 94.916 52.3839 94.88 52.2159 94.88C52.0399 94.88 51.8959 94.916 51.7839 94.988C51.6799 95.052 51.5959 95.152 51.5319 95.288C51.4759 95.416 51.4359 95.576 51.4119 95.768C51.3959 95.96 51.3879 96.18 51.3879 96.428C51.3879 96.644 51.3959 96.844 51.4119 97.028C51.4359 97.212 51.4759 97.372 51.5319 97.508C51.5879 97.644 51.6679 97.752 51.7719 97.832C51.8839 97.904 52.0279 97.94 52.2039 97.94ZM53.9199 95.228L53.6199 94.748C53.6839 94.636 53.8279 94.496 54.0519 94.328C54.2759 94.16 54.5159 94.02 54.7719 93.908L55.1079 94.748C54.9959 94.772 54.8439 94.816 54.6519 94.88C54.4679 94.944 54.2999 95.012 54.1479 95.084C53.9959 95.148 53.9199 95.196 53.9199 95.228ZM57.4782 101.096C56.9342 101.096 56.5142 100.992 56.2182 100.784C55.9222 100.568 55.7142 100.256 55.5942 99.848C55.4822 99.432 55.4262 98.924 55.4262 98.324V96.74C55.4262 96.124 55.4862 95.612 55.6062 95.204C55.7262 94.796 55.9342 94.488 56.2302 94.28C56.5342 94.072 56.9502 93.968 57.4782 93.968C58.0622 93.968 58.4902 94.088 58.7622 94.328C59.0422 94.568 59.2262 94.916 59.3142 95.372C59.4022 95.82 59.4462 96.36 59.4462 96.992V97.556H56.7102V98.948C56.7102 99.228 56.7342 99.456 56.7822 99.632C56.8382 99.808 56.9222 99.94 57.0342 100.028C57.1542 100.108 57.3062 100.148 57.4902 100.148C57.6822 100.148 57.8262 100.104 57.9222 100.016C58.0262 99.92 58.0942 99.788 58.1262 99.62C58.1662 99.444 58.1862 99.24 58.1862 99.008V98.588H59.4342V98.852C59.4342 99.548 59.2862 100.096 58.9902 100.496C58.6942 100.896 58.1902 101.096 57.4782 101.096ZM56.7102 96.86H58.1862V96.236C58.1862 95.948 58.1702 95.708 58.1382 95.516C58.1062 95.316 58.0382 95.168 57.9342 95.072C57.8382 94.968 57.6822 94.916 57.4662 94.916C57.2582 94.916 57.0982 94.964 56.9862 95.06C56.8822 95.156 56.8102 95.32 56.7702 95.552C56.7302 95.776 56.7102 96.088 56.7102 96.488V96.86ZM62.9311 101L64.9951 91.28H66.3031L68.3791 101H67.0951L66.6511 98.552H64.6711L64.2031 101H62.9311ZM64.8511 97.58H66.4711L65.6551 93.2L64.8511 97.58ZM70.0753 101L68.7073 94.064H70.0033L70.8553 99.644L71.7193 94.064H72.9673L71.6473 101H70.0753ZM74.7779 101.096C74.5059 101.096 74.2659 101.02 74.0579 100.868C73.8499 100.708 73.6859 100.508 73.5659 100.268C73.4459 100.02 73.3859 99.76 73.3859 99.488C73.3859 99.056 73.4579 98.692 73.6019 98.396C73.7459 98.1 73.9419 97.852 74.1899 97.652C74.4459 97.444 74.7379 97.264 75.0659 97.112C75.4019 96.96 75.7539 96.812 76.1219 96.668V96.176C76.1219 95.896 76.1059 95.664 76.0739 95.48C76.0419 95.296 75.9739 95.16 75.8699 95.072C75.7739 94.976 75.6259 94.928 75.4259 94.928C75.2499 94.928 75.1059 94.968 74.9939 95.048C74.8899 95.128 74.8139 95.244 74.7659 95.396C74.7179 95.54 74.6939 95.712 74.6939 95.912V96.26L73.4219 96.212C73.4379 95.444 73.6139 94.88 73.9499 94.52C74.2859 94.152 74.8059 93.968 75.5099 93.968C76.1979 93.968 76.6859 94.156 76.9739 94.532C77.2619 94.908 77.4059 95.452 77.4059 96.164V99.332C77.4059 99.548 77.4099 99.756 77.4179 99.956C77.4339 100.156 77.4499 100.344 77.4659 100.52C77.4899 100.688 77.5099 100.848 77.5259 101H76.3499C76.3259 100.872 76.2939 100.712 76.2539 100.52C76.2219 100.32 76.1979 100.14 76.1819 99.98C76.1019 100.252 75.9459 100.508 75.7139 100.748C75.4899 100.98 75.1779 101.096 74.7779 101.096ZM75.2819 99.992C75.4099 99.992 75.5299 99.956 75.6419 99.884C75.7539 99.812 75.8539 99.732 75.9419 99.644C76.0299 99.548 76.0899 99.472 76.1219 99.416V97.448C75.9219 97.56 75.7339 97.672 75.5579 97.784C75.3819 97.896 75.2259 98.016 75.0899 98.144C74.9619 98.264 74.8579 98.404 74.7779 98.564C74.7059 98.716 74.6699 98.892 74.6699 99.092C74.6699 99.372 74.7219 99.592 74.8259 99.752C74.9299 99.912 75.0819 99.992 75.2819 99.992ZM78.7281 101V94.064H80.0121V101H78.7281ZM78.7281 93.032V91.688H80.0121V93.032H78.7281ZM81.5063 101V91.28H82.7903V101H81.5063ZM85.1725 101.096C84.9005 101.096 84.6605 101.02 84.4525 100.868C84.2445 100.708 84.0805 100.508 83.9605 100.268C83.8405 100.02 83.7805 99.76 83.7805 99.488C83.7805 99.056 83.8525 98.692 83.9965 98.396C84.1405 98.1 84.3365 97.852 84.5845 97.652C84.8405 97.444 85.1325 97.264 85.4605 97.112C85.7965 96.96 86.1485 96.812 86.5165 96.668V96.176C86.5165 95.896 86.5005 95.664 86.4685 95.48C86.4365 95.296 86.3685 95.16 86.2645 95.072C86.1685 94.976 86.0205 94.928 85.8205 94.928C85.6445 94.928 85.5005 94.968 85.3885 95.048C85.2845 95.128 85.2085 95.244 85.1605 95.396C85.1125 95.54 85.0885 95.712 85.0885 95.912V96.26L83.8165 96.212C83.8325 95.444 84.0085 94.88 84.3445 94.52C84.6805 94.152 85.2005 93.968 85.9045 93.968C86.5925 93.968 87.0805 94.156 87.3685 94.532C87.6565 94.908 87.8005 95.452 87.8005 96.164V99.332C87.8005 99.548 87.8045 99.756 87.8125 99.956C87.8285 100.156 87.8445 100.344 87.8605 100.52C87.8845 100.688 87.9045 100.848 87.9205 101H86.7445C86.7205 100.872 86.6885 100.712 86.6485 100.52C86.6165 100.32 86.5925 100.14 86.5765 99.98C86.4965 100.252 86.3405 100.508 86.1085 100.748C85.8845 100.98 85.5725 101.096 85.1725 101.096ZM85.6765 99.992C85.8045 99.992 85.9245 99.956 86.0365 99.884C86.1485 99.812 86.2485 99.732 86.3365 99.644C86.4245 99.548 86.4845 99.472 86.5165 99.416V97.448C86.3165 97.56 86.1285 97.672 85.9525 97.784C85.7765 97.896 85.6205 98.016 85.4845 98.144C85.3565 98.264 85.2525 98.404 85.1725 98.564C85.1005 98.716 85.0645 98.892 85.0645 99.092C85.0645 99.372 85.1165 99.592 85.2205 99.752C85.3245 99.912 85.4765 99.992 85.6765 99.992ZM91.5226 101.096C91.2746 101.096 91.0506 101.036 90.8506 100.916C90.6586 100.788 90.4906 100.648 90.3466 100.496V101H89.0626V91.28H90.3466V94.616C90.4986 94.44 90.6786 94.288 90.8866 94.16C91.1026 94.032 91.3586 93.968 91.6546 93.968C92.0146 93.968 92.2986 94.064 92.5066 94.256C92.7226 94.44 92.8826 94.676 92.9866 94.964C93.0906 95.244 93.1586 95.532 93.1906 95.828C93.2226 96.116 93.2386 96.364 93.2386 96.572V98.252C93.2386 98.74 93.1906 99.204 93.0946 99.644C92.9986 100.076 92.8266 100.428 92.5786 100.7C92.3306 100.964 91.9786 101.096 91.5226 101.096ZM91.2586 100.088C91.4826 100.088 91.6426 100.008 91.7386 99.848C91.8346 99.68 91.8946 99.456 91.9186 99.176C91.9426 98.896 91.9546 98.588 91.9546 98.252V96.572C91.9546 96.284 91.9386 96.02 91.9066 95.78C91.8746 95.532 91.8066 95.336 91.7026 95.192C91.5986 95.048 91.4346 94.976 91.2106 94.976C91.0426 94.976 90.8826 95.012 90.7306 95.084C90.5866 95.156 90.4586 95.236 90.3466 95.324V99.776C90.4586 99.864 90.5906 99.94 90.7426 100.004C90.9026 100.06 91.0746 100.088 91.2586 100.088ZM94.5258 101V91.28H95.8098V101H94.5258ZM99.068 101.096C98.524 101.096 98.104 100.992 97.808 100.784C97.512 100.568 97.304 100.256 97.184 99.848C97.072 99.432 97.016 98.924 97.016 98.324V96.74C97.016 96.124 97.076 95.612 97.196 95.204C97.316 94.796 97.524 94.488 97.82 94.28C98.124 94.072 98.54 93.968 99.068 93.968C99.652 93.968 100.08 94.088 100.352 94.328C100.632 94.568 100.816 94.916 100.904 95.372C100.992 95.82 101.036 96.36 101.036 96.992V97.556H98.3V98.948C98.3 99.228 98.324 99.456 98.372 99.632C98.428 99.808 98.512 99.94 98.624 100.028C98.744 100.108 98.896 100.148 99.08 100.148C99.272 100.148 99.416 100.104 99.512 100.016C99.616 99.92 99.684 99.788 99.716 99.62C99.756 99.444 99.776 99.24 99.776 99.008V98.588H101.024V98.852C101.024 99.548 100.876 100.096 100.58 100.496C100.284 100.896 99.78 101.096 99.068 101.096ZM98.3 96.86H99.776V96.236C99.776 95.948 99.76 95.708 99.728 95.516C99.696 95.316 99.628 95.168 99.524 95.072C99.428 94.968 99.272 94.916 99.056 94.916C98.848 94.916 98.688 94.964 98.576 95.06C98.472 95.156 98.4 95.32 98.36 95.552C98.32 95.776 98.3 96.088 98.3 96.488V96.86Z" fill="#777777"/>
<path d="M81.5833 57.25V23.3333C81.5812 22.8702 81.4747 22.4135 81.2719 21.9971C81.0691 21.5808 80.775 21.2155 80.4116 20.9283C80.0534 20.6386 79.6348 20.4328 79.1866 20.326C78.7384 20.2193 78.272 20.2144 77.8216 20.3117L50.0716 26.4783C49.3866 26.6328 48.7748 27.0165 48.3375 27.566C47.9001 28.1155 47.6635 28.7977 47.6666 29.5V55.215C45.5617 54.2213 43.1914 53.9369 40.9112 54.4044C38.6309 54.872 36.5638 56.0663 35.0199 57.8082C33.4759 59.5502 32.5384 61.7457 32.348 64.0656C32.1575 66.3855 32.7245 68.7045 33.9637 70.6749C35.2029 72.6453 37.0476 74.1607 39.2211 74.9938C41.3945 75.827 43.7795 75.9329 46.0183 75.2958C48.2571 74.6586 50.2289 73.3127 51.6379 71.46C53.047 69.6073 53.8173 67.3476 53.8333 65.02C53.8681 64.4861 53.8681 63.9505 53.8333 63.4167V31.9667L75.4166 27.1875V49.0483C73.3106 48.054 70.9388 47.7698 68.6574 48.2384C66.376 48.7071 64.3083 49.9032 62.7647 51.6472C61.2211 53.3911 60.2849 55.5889 60.0969 57.9102C59.9088 60.2316 60.4789 62.5514 61.7217 64.5211C62.9644 66.4908 64.8126 68.0042 66.9888 68.8339C69.165 69.6637 71.5516 69.765 73.7903 69.1227C76.0289 68.4804 77.9988 67.1291 79.404 65.2718C80.8092 63.4145 81.5739 61.1515 81.5833 58.8225C81.6101 58.2987 81.6101 57.7738 81.5833 57.25Z" fill="#777777"/>
</svg>
